<svg xmlns="http://www.w3.org/2000/svg" width="177.009" height="11.908" viewBox="0 0 177.009 11.908">
  <path id="Path_5" data-name="Path 5" d="M1433.28,903.062h5.019c.628,0,1.255-.015,1.882-.029a12.883,12.883,0,0,0,2.239-.135,10.311,10.311,0,0,1,1.878-.059c2.3-.02,4.6-.028,6.9-.059.453-.006.9-.122,1.357-.142.669-.029,1.339-.02,2.008-.02l23.6.015c4.257.3,8.52.113,12.78.15,4.225.036,8.451.032,12.676.045q6.4.021,12.8.045a6.425,6.425,0,0,1,1.989.143,2.2,2.2,0,0,0,.624.018c1.548.017,3.1.024,4.643.056a13.088,13.088,0,0,1,1.988.158,16.407,16.407,0,0,0,2.254.078,11.1,11.1,0,0,1,2.862.2.409.409,0,0,0,.125.005c2.09-.054,4.159.307,6.247.3a3.912,3.912,0,0,1,1.485.167.963.963,0,0,0,.372.027c1.59-.053,3.153.306,4.74.3.628,0,1.215.247,1.852.24a4.385,4.385,0,0,1,1.857.188,1.514,1.514,0,0,0,.5.036c1.454.073,2.873.422,4.321.547a5.641,5.641,0,0,1,.964.232,1.034,1.034,0,0,1,.691,1.617,7.5,7.5,0,0,1-.592.939,2.887,2.887,0,0,1-2.127,1.13c-1.154.138-2.311.244-3.458.445a2.784,2.784,0,0,1-3.092-1.121,1.243,1.243,0,0,1-.421-.987c.022-.2-.089-.288-.275-.328a7.979,7.979,0,0,0-1.6-.227,10.593,10.593,0,0,1-2.487-.2,4.626,4.626,0,0,0-.875-.043,11.006,11.006,0,0,1-2.611-.206,1.637,1.637,0,0,0-.375-.021c-2.5-.1-5.01-.135-7.5-.339-2.127-.174-4.261-.06-6.378-.248-2.045-.182-4.086-.141-6.129-.168-2.008-.027-4.016-.019-6.025-.016q-20.207.026-40.414.055c-3.839.294-7.684.1-11.526.154-3.807.051-7.619-.05-11.419.119-3.132.139-6.269.022-9.39.245-2.589.185-5.175.118-7.761.206-.463.016-.906.129-1.359.158-.709.047-1.422.036-2.132.056a26.132,26.132,0,0,0-3.369.178,19.294,19.294,0,0,1-2.381.071,14.945,14.945,0,0,0-3.116.191,1.93,1.93,0,0,1-.376.01c-2.878.109-5.762.146-8.633.352-2,.144-4.011.061-6,.251-2.922.28-5.844.146-8.765.176-3.681.038-7.363-.007-11.044.023a3.125,3.125,0,0,1-1.864-.589,3.679,3.679,0,0,1-1.341-1.595,1.147,1.147,0,0,1-.041-.243.514.514,0,0,1,.323-.588,5.084,5.084,0,0,1,1.8-.442,23.361,23.361,0,0,1,3.228-.309,23.639,23.639,0,0,1,2.728-.266c.995-.164,2-.1,2.983-.251s2-.1,2.981-.245c1.036-.154,2.085-.1,3.106-.253.913-.139,1.837-.077,2.731-.24.913-.166,1.831-.108,2.737-.227,1.2-.157,2.419-.124,3.609-.281,1.041-.137,2.083-.087,3.114-.218a35.994,35.994,0,0,1,3.989-.247,9.478,9.478,0,0,1,2.482-.211,9.022,9.022,0,0,0,2.234-.2,2.2,2.2,0,0,1,.624-.032,24.143,24.143,0,0,0,3.241-.192,12.872,12.872,0,0,1,2.379-.08c.842.027,1.649-.222,2.484-.225a15.109,15.109,0,0,0,2.5-.071c1.289-.224,2.591-.061,3.866-.24,1.663-.233,3.342-.069,4.993-.257,1.625-.185,3.259-.053,4.865-.247,1.792-.217,3.583-.138,5.372-.22a1.5,1.5,0,0,0,.5-.027,4.411,4.411,0,0,1,1.733-.171c1.171-.027,2.341-.039,3.512-.061.037,0,.073-.038.109-.059-.046-.042-.092-.121-.139-.121-.836-.013-1.673-.025-2.51-.02-1.548.008-3.1.012-4.643.049-.83.02-1.657.127-2.488.158-1,.038-2.008.021-3.011.061a6.112,6.112,0,0,0-1.864.163,2.469,2.469,0,0,1-.748.025c-1.088.018-2.175.027-3.263.057a4.511,4.511,0,0,0-1.487.158,2.276,2.276,0,0,1-.621.033,47.13,47.13,0,0,0-4.747.23,16,16,0,0,1-2.13.067,12.386,12.386,0,0,0-2.114.164,12.515,12.515,0,0,1-2,.082,12.45,12.45,0,0,0-1.989.162,14.039,14.039,0,0,1-2.127.087,5.294,5.294,0,0,0-1.859.181.327.327,0,0,1-.124.009c-1.715-.054-3.407.287-5.119.307a6.214,6.214,0,0,0-1.489.145,6.825,6.825,0,0,1-1.371.091,6.5,6.5,0,0,0-1.984.194.843.843,0,0,1-.25.015c-.543.018-1.089.016-1.63.059s-1.07.145-1.607.2a13.467,13.467,0,0,0-2.734.238c-1.632-.05-3.241.263-4.868.294a8.22,8.22,0,0,0-2.238.178,3.2,3.2,0,0,1-.875.02q-4.455,0-8.911.005c-1.129,0-2.259,0-3.387.051a1.74,1.74,0,0,1-1.8-1.057.294.294,0,0,1,.128-.414,6.171,6.171,0,0,1,1.789-.5c1.09-.254,2.215-.289,3.321-.466,1.227-.2,2.487-.206,3.733-.283,1.038-.064,2.074-.04,3.115-.186a23.714,23.714,0,0,1,3.13-.053.152.152,0,0,1,.111.043.369.369,0,0,1,.1.2c0,.066-.065.173-.117.183-.569.112-1.141.21-1.713.31-.735.129-1.47.26-2.206.384a3.3,3.3,0,0,1-.741.09,5.5,5.5,0,0,0-1.454.3c-.041.008-.071.072-.106.11a.36.36,0,0,0,.117.039,11.264,11.264,0,0,0,2.368-.1,4.967,4.967,0,0,1,1.12-.077c1.254-.024,2.509-.036,3.764-.059a2.743,2.743,0,0,0,1.232-.147.81.81,0,0,1,.372-.039c1.588.057,3.159-.185,4.738-.276a5.788,5.788,0,0,0,1.734-.183,2.677,2.677,0,0,1,.872-.048,24.289,24.289,0,0,0,2.606-.231,16.679,16.679,0,0,0,2.609-.22,4.224,4.224,0,0,1,.875-.044,10.371,10.371,0,0,0,2.36-.2,3.215,3.215,0,0,1,.749-.045,18.657,18.657,0,0,0,2.611-.2,15.67,15.67,0,0,1,2.253-.092,4.889,4.889,0,0,0,1.361-.14,3.717,3.717,0,0,1,1-.061,18.229,18.229,0,0,0,2.505-.073c1.411-.233,2.839-.072,4.235-.253,1.583-.205,3.174-.051,4.74-.242,1.791-.218,3.594-.053,5.368-.255,1.919-.219,3.834-.12,5.749-.215a1.845,1.845,0,0,0,.5-.017,7.208,7.208,0,0,1,2.36-.178c1.673-.028,3.347-.028,5.02-.057.706-.012,1.392-.2,2.108-.2,2.97.008,5.94-.027,8.911-.042,1.171-.006,2.343.01,3.514-.005a13.415,13.415,0,0,0,2.867-.138,5.147,5.147,0,0,1,1.127-.035q8.535-.006,17.069,0c1.165,0,2.315.262,3.484.251.075,0,.15.063.226.1a.288.288,0,0,1,.1.4,1.071,1.071,0,0,1-.967.463c-1.252-.036-2.479.275-3.74.216-1.209-.056-2.425.007-3.638.036a6.466,6.466,0,0,0-1.987.175,2.592,2.592,0,0,1-.624.028,18.837,18.837,0,0,0-3.115.229,6.079,6.079,0,0,1-1.126.057,4.506,4.506,0,0,0-1.609.173.612.612,0,0,1-.247.025c-1.631-.046-3.239.286-4.867.3a6.483,6.483,0,0,0-1.986.183,2.117,2.117,0,0,1-.5.025c-1,.066-1.991.091-2.989.209-1.694.2-3.408.229-5.114.329a2.865,2.865,0,0,0-.624.039,10.02,10.02,0,0,1-2.361.2,4.453,4.453,0,0,0-1.363.153,2.281,2.281,0,0,1-.62.055c-1,.066-1.991.087-2.99.212-1.568.2-3.159.215-4.738.327-.5.035-.985.149-1.481.186-1.538.112-3.078.185-4.614.311-1.37.112-2.736.263-4.11.315a.139.139,0,0,0-.088.065.416.416,0,0,0-.035.118c-.487.01-.974.018-1.46.034a.951.951,0,0,0-.228.066.639.639,0,0,0,.2.073q.668,0,1.334-.033C1433.2,903.235,1433.24,903.123,1433.28,903.062Zm21.627-3.481v-.006h.98c.042,0,.083-.062.124-.1a.637.637,0,0,0-.111-.048.523.523,0,0,0-.122-.007c-.531,0-1.062,0-1.593.008a.96.96,0,0,0-.232.063.733.733,0,0,0,.219.086c.248.011.488,0,.738,0Z" transform="translate(-1377.113 -897.902)" fill="#327c3e"/>
</svg>
