<svg xmlns="http://www.w3.org/2000/svg" width="420.733" height="342.772" viewBox="0 0 420.733 342.772">
  <g id="Group_32146" data-name="Group 32146" transform="translate(-57.229 -4252.693)">
    <path id="Subtraction_16" data-name="Subtraction 16" d="M183.555,197.465a37.252,37.252,0,0,1-26.424-10.945L76.307,105.694A37.212,37.212,0,0,1,65.547,83h93.76l50.673,50.673a37.357,37.357,0,0,1-26.424,63.792Z" transform="translate(186 4170)" fill="#049247"/>
    <path id="Subtraction_1" data-name="Subtraction 1" d="M490.972,470.772a102.189,102.189,0,0,1-39.2-7.8,101.467,101.467,0,0,1-18.029-9.735,102.74,102.74,0,0,1-16.155-13.61L200.855,215.194A102.036,102.036,0,0,1,173.539,128H400.247L564.334,297.917a101.521,101.521,0,0,1,27.085,53.124,102.3,102.3,0,0,1-6.611,57.757,101.873,101.873,0,0,1-74.79,60.188A102.723,102.723,0,0,1,490.972,470.772Z" transform="translate(-115 4124.693)" fill="#fff2e4"/>
  </g>
</svg>
