<svg xmlns="http://www.w3.org/2000/svg" width="17.058" height="12.298" viewBox="0 0 17.058 12.298">
  <g id="envelope" transform="translate(-26.666 -90.666)">
    <path id="Path_3" data-name="Path 3" d="M41.542,102.964H28.848a2.19,2.19,0,0,1-2.182-2.182V92.848a2.19,2.19,0,0,1,2.182-2.182H41.542a2.19,2.19,0,0,1,2.182,2.182v7.934A2.19,2.19,0,0,1,41.542,102.964ZM28.848,91.856a.992.992,0,0,0-.992.992v7.934a.992.992,0,0,0,.992.992H41.542a.992.992,0,0,0,.992-.992V92.848a.992.992,0,0,0-.992-.992H28.848Z" transform="translate(0 0)" fill="#fff"/>
    <path id="Path_4" data-name="Path 4" d="M35.44,170.075a2.578,2.578,0,0,1-1.309-.357L27.2,165.6a.6.6,0,0,1-.214-.793.587.587,0,0,1,.793-.206l6.934,4.11a1.341,1.341,0,0,0,1.4,0l6.934-4.11a.587.587,0,0,1,.793.206.6.6,0,0,1-.214.793l-6.879,4.118A2.579,2.579,0,0,1,35.44,170.075Z" transform="translate(-0.245 -71.11)" fill="#fff"/>
  </g>
</svg>
