<svg xmlns="http://www.w3.org/2000/svg" width="983.886" height="871" viewBox="0 0 983.886 871">
  <path id="Subtraction_4" data-name="Subtraction 4" d="M961.6,931H328.8L94.19,688.057a422.013,422.013,0,0,1-27.934-32.01,416.5,416.5,0,0,1-24.1-34.009c-7.321-11.523-14.141-23.539-20.271-35.715C15.827,574.291,10.293,561.8,5.437,549.2a416.215,416.215,0,0,1,5.45-312.282c5.289-12.416,11.256-24.7,17.734-36.525,6.549-11.953,13.784-23.723,21.506-34.984A415.981,415.981,0,0,1,75.4,132.265a421.99,421.99,0,0,1,29.034-31.017L147.146,60h644.32L961.6,236.182V931Z" transform="translate(22.283 -60)" fill="#049247" opacity="0.05"/>
</svg>
