<svg xmlns="http://www.w3.org/2000/svg" width="44.955" height="32.01" viewBox="0 0 44.955 32.01">
  <g id="Group_3224" data-name="Group 3224" transform="translate(0 -2)">
    <rect id="Rectangle_682" data-name="Rectangle 682" width="44.956" height="32.01" transform="translate(0 2)" fill="#de2910"/>
    <path id="Path_14731" data-name="Path 14731" d="M228.7,187.563c-5.142-2.173-2.863-8.871,2.055-8.534a1.514,1.514,0,0,0-.571,2.349,2.3,2.3,0,0,1-.919,2.969,1.871,1.871,0,0,0-.566,3.216Z" transform="translate(-206.239 -171.698)" fill="#fff"/>
    <path id="Path_14732" data-name="Path 14732" d="M240.991,202.445l-.289.454-.1-.528-.522-.135.47-.263-.033-.537.395.366.5-.2-.225.489.342.416Z" transform="translate(-218.804 -191.404)" fill="#de2910"/>
    <path id="Path_14733" data-name="Path 14733" d="M238.623,216.373a2.83,2.83,0,0,1-1.342-1.78,3.383,3.383,0,0,1,.395-2.689l-.108-.068a3.512,3.512,0,0,0-.41,2.79,2.917,2.917,0,0,0,1.406,1.86Z" transform="translate(-216.136 -200.49)" fill="#de2910"/>
    <path id="Path_14734" data-name="Path 14734" d="M250.029,219.139c.478-5.562,7.552-5.464,8.752-.683a1.514,1.514,0,0,0-2.411.183,2.3,2.3,0,0,1-3.107.044,1.871,1.871,0,0,0-3.234.456Z" transform="translate(-227.425 -203.192)" fill="#fff"/>
    <path id="Path_14735" data-name="Path 14735" d="M283.693,228.544l-.521-.135.47-.263-.033-.538.4.366.5-.2-.226.489.343.415-.535-.063-.29.454Z" transform="translate(-256.588 -214.348)" fill="#de2910"/>
    <path id="Path_14736" data-name="Path 14736" d="M249.63,231.731a2.83,2.83,0,0,1,1.278-1.826,3.383,3.383,0,0,1,2.679-.455l.031-.124a3.511,3.511,0,0,0-2.78.473,2.917,2.917,0,0,0-1.334,1.912Z" transform="translate(-227.036 -215.75)" fill="#de2910"/>
    <path id="Path_14737" data-name="Path 14737" d="M250.032,248.881c5.438-1.264,7.53,5.494,3.354,8.112a1.514,1.514,0,0,0-.919-2.236,2.3,2.3,0,0,1-1-2.942,1.871,1.871,0,0,0-1.433-2.934Z" transform="translate(-227.479 -232.748)" fill="#fff"/>
    <path id="Path_14738" data-name="Path 14738" d="M272.069,277.22l-.033-.537.4.366.5-.2-.226.489.342.415-.535-.064-.289.454-.105-.528-.521-.135Z" transform="translate(-246.442 -257.368)" fill="#de2910"/>
    <path id="Path_14739" data-name="Path 14739" d="M249.969,249.421a2.829,2.829,0,0,1,2.132.651,3.382,3.382,0,0,1,1.261,2.407l.127-.008a3.512,3.512,0,0,0-1.309-2.5,2.917,2.917,0,0,0-2.231-.678Z" transform="translate(-227.435 -233.312)" fill="#de2910"/>
    <path id="Path_14740" data-name="Path 14740" d="M201.224,250.037c2.883,4.781-2.9,8.86-6.679,5.7a1.514,1.514,0,0,0,1.843-1.565,2.3,2.3,0,0,1,2.488-1.862,1.871,1.871,0,0,0,2.348-2.269Z" transform="translate(-178.827 -233.927)" fill="#fff"/>
    <path id="Path_14741" data-name="Path 14741" d="M222.182,281.206l.5-.2-.226.489.343.416-.535-.063-.289.454-.1-.528-.521-.135.47-.263-.032-.537Z" transform="translate(-202.386 -261.013)" fill="#de2910"/>
    <path id="Path_14742" data-name="Path 14742" d="M235.936,249.854a2.829,2.829,0,0,1,.04,2.229,3.382,3.382,0,0,1-1.9,1.943l.047.118a3.512,3.512,0,0,0,1.972-2.017,2.918,2.918,0,0,0-.045-2.331Z" transform="translate(-213.535 -233.758)" fill="#de2910"/>
    <path id="Path_14743" data-name="Path 14743" d="M192.721,216.476c-3.656,4.219-9.321-.018-7.481-4.592a1.514,1.514,0,0,0,2.058,1.269,2.3,2.3,0,0,1,2.54,1.791,1.871,1.871,0,0,0,2.884,1.532Z" transform="translate(-170.355 -200.512)" fill="#fff"/>
    <path id="Path_14744" data-name="Path 14744" d="M202.975,234.993l.342.415-.535-.064-.289.454-.105-.529-.521-.135.47-.263-.033-.538.4.365.5-.2Z" transform="translate(-185.305 -220.245)" fill="#de2910"/>
    <path id="Path_14745" data-name="Path 14745" d="M215.708,246.122a2.829,2.829,0,0,1-2.107.726,3.382,3.382,0,0,1-2.435-1.206l-.1.082a3.511,3.511,0,0,0,2.527,1.252,2.917,2.917,0,0,0,2.2-.763Z" transform="translate(-193.338 -230.159)" fill="#de2910"/>
  </g>
</svg>
