<svg xmlns="http://www.w3.org/2000/svg" width="843.297" height="647.557" viewBox="0 0 843.297 647.557">
  <g id="Path_2" data-name="Path 2" transform="translate(15.097 0.557)" fill="#327c3e">
    <path d="M 827.7007446289062 646.5 L 1.480211138725281 646.5 C 3.828219175338745 644.652587890625 9.485520362854004 639.9356079101562 16.96784019470215 631.9093627929688 C 22.77784156799316 625.6771240234375 28.54161834716797 618.6929321289062 34.09906387329102 611.1508178710938 C 41.04395294189453 601.7258911132812 47.68484115600586 591.397705078125 53.83739471435547 580.452880859375 C 69.49372863769531 552.6015625 82.1219482421875 520.6367797851562 91.37128448486328 485.4465637207031 C 102.9295043945312 441.4712219238281 109.2140655517578 392.3045654296875 110.0501708984375 339.3123474121094 C 110.8865051269531 286.3136901855469 104.8479537963867 235.4497833251953 92.10239410400391 188.1335754394531 C 81.90461730957031 150.2760162353516 67.41495513916016 114.5917892456055 49.03583908081055 82.07223510742188 C 41.81472778320312 69.29545593261719 33.9683952331543 56.98245620727539 25.71461868286133 45.47512435913086 C 19.11083984375 36.26812362670898 12.2327299118042 27.55312347412109 5.271507263183594 19.57212448120117 C -4.174540042877197 8.742469787597656 -11.23885154724121 2.195193529129028 -13.76415348052979 -0.05577393993735313 L 827.7007446289062 0.4996832013130188 L 827.7007446289062 646.5 Z" stroke="none"/>
    <path d="M -12.46356201171875 0.445068359375 C -9.34930419921875 3.2889404296875 -2.79730224609375 9.56097412109375 5.648193359375 19.24346923828125 C 12.61981201171875 27.236328125 19.5078125 35.96392822265625 26.120849609375 45.18365478515625 C 34.38494873046875 56.70556640625 42.24114990234375 69.03387451171875 49.4710693359375 81.82623291015625 C 67.870849609375 114.38232421875 82.37652587890625 150.10546875 92.58514404296875 188.0034484863281 C 105.3428344726562 235.3647766113281 111.3871459960938 286.2750244140625 110.5501708984375 339.3202209472656 C 109.71337890625 392.3526611328125 103.4232788085938 441.5594482421875 91.8548583984375 485.5736694335938 C 82.5947265625 520.8051147460938 69.95037841796875 552.8094482421875 54.273193359375 580.6978759765625 C 48.110595703125 591.6604614257812 41.45849609375 602.006103515625 34.50152587890625 611.4474487304688 C 28.9327392578125 619.0050048828125 23.156494140625 626.004150390625 17.33349609375 632.2503662109375 C 10.76763916015625 639.2933959960938 5.68487548828125 643.7381591796875 2.912353515625 646 L 827.2006225585938 646 L 827.2006225585938 0.99932861328125 L -12.46356201171875 0.445068359375 M -15.09661865234375 -0.556640625 L 828.2006225585938 0 L 828.2006225585938 647 L -6.103515625e-05 647 C -6.103515625e-05 647 105.8871459960938 571.4527587890625 109.55029296875 339.304443359375 C 113.2132568359375 107.1561279296875 -15.09661865234375 -0.556640625 -15.09661865234375 -0.556640625 Z" stroke="none" fill="#707070"/>
  </g>
</svg>
