<svg xmlns="http://www.w3.org/2000/svg" width="910" height="647" viewBox="0 0 910 647">
  <g id="Path_3" data-name="Path 3" fill="#a4f850">
    <path d="M 909.5 646.5 L 1.794670701026917 646.5 C 4.773185729980469 644.6419677734375 11.8364200592041 639.9675903320312 21.15766716003418 632.0361938476562 C 28.44488906860352 625.8355712890625 35.67255401611328 618.882568359375 42.63966751098633 611.370361328125 C 51.34700012207031 601.9817504882812 59.67011260986328 591.6878662109375 67.37799835205078 580.774658203125 C 86.99433135986328 553.0005493164062 102.7929992675781 521.0953369140625 114.3352203369141 485.9450988769531 C 128.7593383789062 442.0187683105469 136.5388946533203 392.8720092773438 137.4577789306641 339.8697814941406 C 138.3767852783203 286.8666687011719 131.7412261962891 235.9985504150391 117.7356643676758 188.6783294677734 C 106.5301132202148 150.8184509277344 90.60844421386719 115.1322250366211 70.41300201416016 82.61111450195312 C 62.47866821289062 69.83422088623047 53.85722351074219 57.52099990844727 44.78833389282227 46.01366806030273 C 37.53244400024414 36.80688858032227 29.97522163391113 28.09211158752441 22.3266658782959 20.1114444732666 C 11.97024822235107 9.305346488952637 4.219883441925049 2.763574361801147 1.430896997451782 0.5 L 909.5 0.5 L 909.5 646.5 Z" stroke="none"/>
    <path d="M 2.82611083984375 1 C 6.260009765625 3.8558349609375 13.44024658203125 10.1165771484375 22.68768310546875 19.76556396484375 C 30.34735107421875 27.75775146484375 37.91510009765625 36.48480224609375 45.1810302734375 45.7042236328125 C 54.2613525390625 57.22613525390625 62.8935546875 69.5546875 70.8377685546875 82.34735107421875 C 91.0567626953125 114.9064331054688 106.9967651367188 150.633544921875 118.2150268554688 188.5364379882812 C 132.235107421875 235.9055480957031 138.8775634765625 286.8243408203125 137.957763671875 339.8784484863281 C 137.0379028320312 392.9307861328125 129.25 442.1271057128906 114.8103637695312 486.1011047363281 C 103.2525634765625 521.298583984375 87.43145751953125 553.2483520507812 67.78643798828125 581.06298828125 C 60.06591796875 591.9943237304688 51.72857666015625 602.3055419921875 43.00634765625 611.7103271484375 C 36.0257568359375 619.2368774414062 28.78387451171875 626.2036743164062 21.481689453125 632.4169921875 C 13.41876220703125 639.2777099609375 7.032958984375 643.7127075195312 3.50958251953125 646 L 909 646 L 909 1 L 2.82611083984375 1 M 0 0 L 910 0 L 910 647 L 0 647 C 0 647 132.9329833984375 572.0093383789062 136.9578857421875 339.8611145019531 C 140.982666015625 107.7127685546875 0 0 0 0 Z" stroke="none" fill="#707070"/>
  </g>
</svg>
