<svg xmlns="http://www.w3.org/2000/svg" width="44.955" height="32.01" viewBox="0 0 44.955 32.01">
  <g id="Group_3225" data-name="Group 3225" transform="translate(7160.376 -16683)">
    <rect id="Rectangle_686" data-name="Rectangle 686" width="44.955" height="16.01" transform="translate(-7160.375 16683)" fill="#303e99"/>
    <rect id="Rectangle_687" data-name="Rectangle 687" width="44.955" height="15.999" transform="translate(-7160.375 16699)" fill="#bd1f34"/>
    <path id="Path_14751" data-name="Path 14751" d="M0,106.7v32.009L22.593,122.7Z" transform="translate(-7160.375 16576.301)" fill="#fff"/>
    <path id="Path_14752" data-name="Path 14752" d="M7.524,347.6l-1-.589-.86.791.243-1.152-1.008-.58,1.156-.114L6.29,344.8l.469,1.073,1.156-.132-.869.783Z" transform="translate(-7164.85 16361.977)" fill="#f4d130"/>
    <path id="Path_14753" data-name="Path 14753" d="M43.985,212.948l-.843-1.468-.487-.053,1.156,1.662Zm-.652.668-1.773-1.38-.061-.809.721-.026,1.469,1.82Zm-.269.317L41.6,213.1l-.061-.492,1.651,1.152Z" transform="translate(-7198.27 16483.646)" fill="#f4d130"/>
    <path id="Path_14754" data-name="Path 14754" d="M75.481,195.766l.443-1.644-.3-.387-.356,2Zm-.93,0-.269-2.251.521-.615.521.5-.252,2.339Zm-.417.026-.434-1.644.3-.387.356,2Z" transform="translate(-7227.671 16500.52)" fill="#f4d130"/>
    <path id="Path_14755" data-name="Path 14755" d="M103.747,214.788l1.477-.818.07-.492-1.677,1.125Zm-.643-.686,1.416-1.759.8-.044.009.73-1.833,1.442Zm-.3-.281.86-1.46.487-.053-1.182,1.653Z" transform="translate(-7254.144 16482.824)" fill="#f4d130"/>
    <path id="Path_14756" data-name="Path 14756" d="M116.517,245.3l1.625.448.382-.308-1.981-.361Zm.009-.95,2.225-.273.6.528-.5.528-2.311-.255Zm-.026-.413,1.625-.44.382.308-1.981.361Z" transform="translate(-7266.639 16454.367)" fill="#f4d130"/>
    <path id="Path_14757" data-name="Path 14757" d="M102.5,272.694l.852,1.468.487.053-1.164-1.662Zm.66-.677,1.781,1.372.07.809-.721.026-1.477-1.811Zm.261-.317,1.469.827.061.492-1.668-1.143Z" transform="translate(-7253.87 16428.648)" fill="#f4d130"/>
    <path id="Path_14758" data-name="Path 14758" d="M74.026,286.135l-.426,1.644.3.387.348-2Zm.938,0,.287,2.251L74.73,289l-.521-.5.235-2.339Zm.408-.035.452,1.635-.3.387-.365-2Z" transform="translate(-7227.58 16415.516)" fill="#f4d130"/>
    <path id="Path_14759" data-name="Path 14759" d="M42.938,271.9l-1.46.844-.061.492,1.66-1.152Zm.66.668-1.382,1.785-.8.053-.017-.73,1.807-1.468Zm.3.273-.843,1.468-.478.062,1.156-1.671Z" transform="translate(-7198.178 16428.467)" fill="#f4d130"/>
    <path id="Path_14760" data-name="Path 14760" d="M26.033,243.74l-1.625-.44-.382.308,1.981.352Zm0,.941-2.225.29-.608-.528.5-.528,2.311.237Zm.035.422-1.616.457-.382-.308,1.973-.369Z" transform="translate(-7181.56 16454.553)" fill="#f4d130"/>
    <path id="Path_14761" data-name="Path 14761" d="M57.537,224.5a2.77,2.77,0,1,1-2.737,2.77,2.753,2.753,0,0,1,2.737-2.77" transform="translate(-7210.414 16471.697)" fill="#f4d130"/>
    <path id="Path_14762" data-name="Path 14762" d="M194.7,241.079l.687-.95-.687-.95,1.095.369.686-.95-.009,1.169,1.1.361-1.1.36.009,1.169-.678-.95Z" transform="translate(-7337.968 16458.838)" fill="#f4d130"/>
    <path id="Path_14763" data-name="Path 14763" d="M7.524,130l-1,.6-.86-.8.243,1.152-1.008.58,1.156.123.235,1.152.469-1.081,1.156.132-.869-.783Z" transform="translate(-7164.85 16558.072)" fill="#f4d130"/>
  </g>
</svg>
