<svg xmlns="http://www.w3.org/2000/svg" version="1.1" xmlns:xlink="http://www.w3.org/1999/xlink" width="512" height="512" x="0" y="0" viewBox="0 0 173.397 173.397" style="enable-background:new 0 0 512 512" xml:space="preserve" fill-rule="evenodd" class=""><g><path d="M38.863 84.489a1.782 1.782 0 0 1-1.782-1.782v-64.9c0-4.922 4.006-8.926 8.929-8.926h70.083c4.919 0 8.925 4.004 8.925 8.926v22.866c0 .479-.195.937-.535 1.273-.344.335-.802.52-1.284.509a30.388 30.388 0 0 0-.64-.008 1.783 1.783 0 0 1-1.105-3.18v-21.46a5.37 5.37 0 0 0-5.362-5.362H46.01a5.37 5.37 0 0 0-5.365 5.362v64.9a1.78 1.78 0 0 1-1.782 1.782zm77.23 80.027H46.01c-4.922 0-8.929-4.003-8.929-8.925V133.74a1.782 1.782 0 1 1 3.564 0v21.851a5.37 5.37 0 0 0 5.365 5.362h70.083a5.37 5.37 0 0 0 5.36-5.362v-49.135a1.782 1.782 0 1 1 3.565 0v49.135c0 4.922-4.007 8.926-8.926 8.925z" fill="#49853d" opacity="1" data-original="#000000" class=""></path><path d="M123.236 28.37H38.863a1.782 1.782 0 0 1 0-3.563h84.373a1.782 1.782 0 0 1 0 3.563zM123.236 148.59H38.863a1.782 1.782 0 0 1 0-3.564h84.373a1.782 1.782 0 0 1 0 3.564zM47.755 99.955H33.688a1.782 1.782 0 1 1 0-3.564h14.067a1.782 1.782 0 0 1 0 3.564zM51.371 106.365H37.304a1.782 1.782 0 0 1 0-3.564H51.37a1.782 1.782 0 0 1 0 3.564zM91.123 99.955H77.056a1.782 1.782 0 0 1 0-3.564h14.067a1.782 1.782 0 0 1 0 3.564zM87.506 106.365H73.439a1.782 1.782 0 1 1 0-3.564h14.067a1.782 1.782 0 0 1 0 3.564zM47.755 120.055H33.688a1.782 1.782 0 1 1 0-3.563h14.067a1.782 1.782 0 0 1 0 3.563zM51.371 113.645H37.304a1.782 1.782 0 0 1 0-3.564H51.37a1.782 1.782 0 1 1 0 3.564zM91.123 120.055H77.056a1.782 1.782 0 1 1 0-3.563h14.067a1.782 1.782 0 0 1 0 3.563zM87.506 113.645H73.439a1.782 1.782 0 1 1 0-3.564h14.067a1.782 1.782 0 1 1 0 3.564z" fill="#49853d" opacity="1" data-original="#000000" class=""></path><path d="M106.874 135.522H17.938a1.783 1.783 0 0 1-1.783-1.782V82.707c0-.984.799-1.782 1.782-1.782H90.95a1.782 1.782 0 0 1 0 3.564H19.72v47.47h85.372V102.49a1.781 1.781 0 1 1 3.563 0l.001 31.25c0 .984-.799 1.782-1.782 1.782z" fill="#49853d" opacity="1" data-original="#000000" class=""></path><path d="M98.665 127.314h-72.52a1.782 1.782 0 0 1-1.782-1.781v-34.62c0-.984.798-1.781 1.782-1.781h68.458a1.782 1.782 0 0 1 0 3.563H27.927v31.055h68.956V96.177a1.782 1.782 0 0 1 3.564 0v29.355c0 .985-.798 1.782-1.782 1.782z" fill="#49853d" opacity="1" data-original="#000000" class=""></path><path d="M62.58 102.013a1.782 1.782 0 0 1-1.782-1.782v-2.844a1.782 1.782 0 0 1 3.564 0v2.844c0 .984-.798 1.782-1.782 1.782zM62.23 120.84a1.782 1.782 0 0 1-1.782-1.782v-2.844a1.782 1.782 0 0 1 3.564 0v2.844c0 .984-.798 1.782-1.782 1.782z" fill="#49853d" opacity="1" data-original="#000000" class=""></path><path d="M61.996 118.001c-.103 0-.208-.002-.31-.007-2.4-.121-5.192-1.733-5.151-5.878a1.78 1.78 0 0 1 1.779-1.765h.018c.984.01 1.776.816 1.767 1.8-.015 1.475.563 2.223 1.766 2.283 1.266.06 2.627-.726 2.7-1.566l.01-.07c.232-1.772-2.484-2.854-3.032-3.053-4.903-1.783-5.312-4.551-4.789-6.558.978-3.74 4.133-5.044 6.655-4.675 2.974.435 4.972 2.877 4.863 5.936a1.78 1.78 0 1 1-3.56-.128c.052-1.478-.907-2.148-1.82-2.281-1.002-.148-2.237.313-2.688 2.046-.114.441-.328 1.262 2.558 2.31 3.72 1.353 5.718 3.906 5.35 6.832-.288 2.922-3.326 4.774-6.116 4.774zM122.559 42.446c-17.158 0-31.117 13.96-31.117 31.118 0 17.158 13.959 31.118 31.117 31.118s31.12-13.96 31.12-31.118c0-17.158-13.962-31.117-31.12-31.118zm0 65.8c-19.122 0-34.681-15.558-34.681-34.682 0-19.123 15.558-34.681 34.68-34.681 19.126 0 34.685 15.558 34.685 34.681 0 19.124-15.559 34.682-34.684 34.682z" fill="#49853d" opacity="1" data-original="#000000" class=""></path><path d="M149.991 57.178H95.129a1.782 1.782 0 0 1 0-3.564h54.862a1.782 1.782 0 0 1 0 3.564zM155.457 75.377H89.66a1.782 1.782 0 1 1 0-3.563h65.797a1.78 1.78 0 0 1 1.782 1.782 1.78 1.78 0 0 1-1.782 1.781zM149.948 93.577H95.17a1.782 1.782 0 0 1 0-3.564h54.778a1.782 1.782 0 0 1 0 3.564z" fill="#49853d" opacity="1" data-original="#000000" class=""></path><path d="M122.559 42.446c-4.542 0-9.625 13.308-9.625 31.118s5.083 31.118 9.625 31.118c4.545 0 9.624-13.308 9.624-31.118s-5.08-31.117-9.624-31.118zm0 65.8c-8.563 0-13.186-17.869-13.186-34.682 0-16.813 4.622-34.681 13.186-34.681 8.567 0 13.188 17.869 13.188 34.681 0 16.813-4.622 34.682-13.188 34.682zM49.958 57.784h13.78c.983 0 1.78.798 1.78 1.782l.001 2.416 15.432-8.891-15.432-8.89v2.416c0 .984-.799 1.782-1.782 1.782h-13.78zm13.78 9.064a1.785 1.785 0 0 1-1.783-1.782v-3.718h-13.78a1.782 1.782 0 0 1-1.782-1.782v-12.95c0-.984.799-1.781 1.782-1.781h13.78v-3.718a1.782 1.782 0 0 1 2.673-1.544l20.784 11.975a1.782 1.782 0 0 1 0 3.087L64.628 66.61a1.793 1.793 0 0 1-.89.238z" fill="#49853d" opacity="1" data-original="#000000" class=""></path></g></svg>