<svg xmlns="http://www.w3.org/2000/svg" width="44.965" height="29.976" viewBox="0 0 44.965 29.976">
  <g id="Group_4278" data-name="Group 4278" transform="translate(-116 -1945)">
    <g id="singapore_2_" data-name="singapore (2)" transform="translate(116 1859.663)">
      <rect id="Rectangle_2534" data-name="Rectangle 2534" width="44.965" height="29.976" transform="translate(0 85.337)" fill="#f0f0f0"/>
      <rect id="Rectangle_2535" data-name="Rectangle 2535" width="44.965" height="14.988" transform="translate(0 85.337)" fill="#d80027"/>
      <g id="Group_4277" data-name="Group 4277" transform="translate(5.376 88.269)">
        <path id="Path_19852" data-name="Path 19852" d="M63.173,123.286a4.563,4.563,0,0,1,3.584-4.456,4.562,4.562,0,1,0,0,8.911A4.562,4.562,0,0,1,63.173,123.286Z" transform="translate(-61.218 -118.724)" fill="#f0f0f0"/>
        <path id="Path_19853" data-name="Path 19853" d="M136.026,122.435l.324,1H137.4l-.847.615.324,1-.847-.615-.847.615.324-1-.847-.615H135.7Z" transform="translate(-128.207 -122.109)" fill="#f0f0f0"/>
        <path id="Path_19854" data-name="Path 19854" d="M107.109,144.7l.323,1h1.047l-.847.615.324,1-.847-.615-.847.615.324-1-.847-.615h1.047Z" transform="translate(-101.829 -142.415)" fill="#f0f0f0"/>
        <path id="Path_19855" data-name="Path 19855" d="M164.944,144.7l.324,1h1.047l-.847.615.324,1-.847-.615-.847.615.324-1-.847-.615h1.047Z" transform="translate(-154.585 -142.415)" fill="#f0f0f0"/>
        <path id="Path_19856" data-name="Path 19856" d="M153.814,178.087l.324,1h1.047l-.847.615.324,1-.847-.615-.847.615.324-1-.847-.615h1.047Z" transform="translate(-144.432 -172.874)" fill="#f0f0f0"/>
        <path id="Path_19857" data-name="Path 19857" d="M118.24,178.087l.323,1h1.047l-.847.615.324,1-.847-.615-.847.615.324-1-.847-.615h1.047Z" transform="translate(-111.983 -172.874)" fill="#f0f0f0"/>
      </g>
    </g>
  </g>
</svg>
