<svg xmlns="http://www.w3.org/2000/svg" width="13.733" height="13.758" viewBox="0 0 13.733 13.758">
  <g id="Group_23" data-name="Group 23" transform="translate(-264.8 -13.442)">
    <path id="Icon_feather-phone" data-name="Icon feather-phone" d="M14.26,16.057c-.058,0-.117,0-.175-.008h-.013a13.036,13.036,0,0,1-5.653-2.01,12.875,12.875,0,0,1-3.932-3.932A13.034,13.034,0,0,1,2.477,4.426V4.415A1.94,1.94,0,0,1,4.406,2.3H6.28A1.949,1.949,0,0,1,8.2,3.969v.006a7.272,7.272,0,0,0,.4,1.589A1.945,1.945,0,0,1,8.16,7.61l-.4.4a9.227,9.227,0,0,0,2.731,2.731l.4-.4a1.94,1.94,0,0,1,2.05-.439,7.269,7.269,0,0,0,1.588.4h.006A1.94,1.94,0,0,1,16.2,12.259v1.853a1.94,1.94,0,0,1-1.94,1.945Zm-.044-1.4a.54.54,0,0,0,.584-.541V12.252q0-.009,0-.017a.54.54,0,0,0-.463-.548,8.675,8.675,0,0,1-1.891-.472.542.542,0,0,0-.571.121l-.785.785a.7.7,0,0,1-.841.114A10.627,10.627,0,0,1,6.266,8.251.7.7,0,0,1,6.38,7.41l.788-.788a.54.54,0,0,0,.119-.567,8.678,8.678,0,0,1-.472-1.893A.543.543,0,0,0,6.28,3.7H4.407a.54.54,0,0,0-.537.584A11.627,11.627,0,0,0,5.664,9.347l0,.005a11.466,11.466,0,0,0,3.505,3.505l.005,0A11.628,11.628,0,0,0,14.217,14.656Z" transform="translate(262.332 11.143)" fill="#fff"/>
  </g>
</svg>
