<svg xmlns="http://www.w3.org/2000/svg" width="1001.453" height="690.261" viewBox="0 0 1001.453 690.261">
  <path id="Subtraction_38" data-name="Subtraction 38" d="M987.372,1044.261a220.4,220.4,0,0,1-82.8-16.112,218.934,218.934,0,0,1-38.273-20.141,221.668,221.668,0,0,1-34.52-28.2L205.965,354H828.348l314.619,314.619a221.679,221.679,0,0,1,28.2,34.519,218.849,218.849,0,0,1,32.225,79.049,220.686,220.686,0,0,1-12.084,124.831,218.919,218.919,0,0,1-20.141,38.273,222.186,222.186,0,0,1-62.716,62.716,218.839,218.839,0,0,1-79.049,32.225A221.628,221.628,0,0,1,987.372,1044.261Z" transform="translate(-205.965 -354)" fill="#262626"/>
</svg>
